<svg width="8" height="8" viewBox="0 0 8 8" fill="none" xmlns="http://www.w3.org/2000/svg">
    <path d="M3.99999 8C3.20887 8 2.43551 7.76541 1.77771 7.32588C1.11992 6.88635 0.607227 6.26164 0.304476 5.53074C0.00172551 4.79983 -0.0774878 3.99556 0.076853 3.21964C0.231194 2.44372 0.612157 1.73098 1.17157 1.17157C1.73098 0.612165 2.44371 0.231202 3.21963 0.0768607C3.99556 -0.0774802 4.79982 0.00173314 5.53073 0.304484C6.26163 0.607234 6.88635 1.11992 7.32587 1.77772C7.7654 2.43552 7.99999 3.20888 7.99999 4C7.99885 5.06052 7.57705 6.07727 6.82715 6.82716C6.07726 7.57706 5.06051 7.99886 3.99999 8V8ZM3.99999 0.666669C3.34072 0.666669 2.69626 0.862165 2.14809 1.22844C1.59993 1.59471 1.17269 2.1153 0.920396 2.72439C0.668104 3.33348 0.602093 4.0037 0.73071 4.6503C0.859327 5.29691 1.1768 5.89085 1.64297 6.35702C2.10915 6.8232 2.70309 7.14067 3.34969 7.26929C3.9963 7.3979 4.66652 7.33189 5.27561 7.0796C5.88469 6.82731 6.40529 6.40007 6.77156 5.8519C7.13783 5.30374 7.33333 4.65927 7.33333 4C7.33236 3.11624 6.98086 2.26896 6.35595 1.64405C5.73103 1.01914 4.88375 0.667639 3.99999 0.666669V0.666669Z" fill="#9A9A9A" />
</svg>
    