<?xml version="1.0" encoding="utf-8"?><svg xml:space="preserve" viewBox="0 0 100 100" y="0" x="0" xmlns="http://www.w3.org/2000/svg" id="圖層_1" version="1.1" width="200px" height="200px" xmlns:xlink="http://www.w3.org/1999/xlink" style="width:100%;height:100%;background-size:initial;background-repeat-y:initial;background-repeat-x:initial;background-position-y:initial;background-position-x:initial;background-origin:initial;background-color:initial;background-clip:initial;background-attachment:initial;animation-play-state:paused" ><g class="ldl-scale" style="transform-origin:50% 50%;transform:rotate(0deg) scale(0.8, 0.8);animation-play-state:paused" ><path fill="#e15b64" d="M69.863 19.947L50 39.81 30.137 19.946c-2.809-2.809-7.379-2.809-10.189 0s-2.809 7.38 0 10.189l19.863 19.863-19.863 19.864c-2.809 2.809-2.809 7.38 0 10.189s7.379 2.809 10.189 0L50 60.188l19.863 19.863c2.809 2.809 7.379 2.809 10.189 0s2.809-7.38 0-10.189L60.189 49.998l19.863-19.863c2.809-2.809 2.809-7.38 0-10.189s-7.379-2.808-10.189.001z" style="fill:rgb(225, 91, 100);animation-play-state:paused" ></path>
<metadata xmlns:d="https://loading.io/stock/" style="animation-play-state:paused" ><d:name style="animation-play-state:paused" >cross</d:name>
<d:tags style="animation-play-state:paused" >times,delete,clear,remove,error,forbid,deny,negative,drop,refuse,reject,cross,form</d:tags>
<d:license style="animation-play-state:paused" >free</d:license>
<d:slug style="animation-play-state:paused" >gsd528</d:slug></metadata></g><!-- generated by https://loading.io/ --></svg>