<svg width="25" height="25" viewBox="0 0 25 25" fill="none" xmlns="http://www.w3.org/2000/svg">
<g clip-path="url(#clip0_1_50)">
<path d="M24.5021 6.44318C24.3607 5.91132 24.0822 5.42591 23.6943 5.03553C23.3064 4.64515 22.8228 4.36349 22.2918 4.21874C20.3373 3.69318 12.5248 3.69318 12.5248 3.69318C12.5248 3.69318 4.7123 3.69318 2.75775 4.21874C2.22681 4.36349 1.74319 4.64515 1.3553 5.03553C0.967416 5.42591 0.688864 5.91132 0.547523 6.44318C0.0247956 8.40624 0.0247955 12.5 0.0247955 12.5C0.0247955 12.5 0.0247956 16.5937 0.547523 18.5568C0.688864 19.0887 0.967416 19.5741 1.3553 19.9645C1.74319 20.3548 2.22681 20.6365 2.75775 20.7812C4.7123 21.3068 12.5248 21.3068 12.5248 21.3068C12.5248 21.3068 20.3373 21.3068 22.2918 20.7812C22.8228 20.6365 23.3064 20.3548 23.6943 19.9645C24.0822 19.5741 24.3607 19.0887 24.5021 18.5568C25.0248 16.5937 25.0248 12.5 25.0248 12.5C25.0248 12.5 25.0248 8.40624 24.5021 6.44318Z" fill="#FF0302"/>
<path d="M9.96799 16.2174V8.78271L16.5021 12.5L9.96799 16.2174Z" fill="#FEFEFE"/>
</g>
<defs>
<clipPath id="clip0_1_50">
<rect width="25" height="25" fill="white"/>
</clipPath>
</defs>
</svg>
